<?xml version="1.0" standalone="no"?>
<!DOCTYPE svg PUBLIC "-//W3C//DTD SVG 20010904//EN"
 "http://www.w3.org/TR/2001/REC-SVG-20010904/DTD/svg10.dtd">
<svg version="1.0" xmlns="http://www.w3.org/2000/svg"
 width="300.000000pt" height="300.000000pt" viewBox="0 0 300.000000 300.000000"
 preserveAspectRatio="xMidYMid meet">
<metadata>
Created by potrace 1.11, written by Peter Selinger 2001-2013
</metadata>
<g transform="translate(0.000000,300.000000) scale(0.100000,-0.100000)"
fill="#000000" stroke="none">
<path d="M470 2984 c-213 -45 -403 -219 -455 -415 -22 -80 -22 -2058 0 -2138
39 -148 157 -287 305 -360 149 -73 111 -71 1180 -71 800 0 966 3 1025 15 217
45 408 218 460 416 22 80 22 2058 0 2138 -39 148 -157 287 -305 360 -150 73
-110 71 -1185 70 -782 0 -972 -3 -1025 -15z m1313 -659 c252 -53 377 -220 380
-505 1 -179 -41 -301 -140 -404 -126 -132 -285 -186 -545 -186 l-88 0 0 -290
0 -290 -175 0 -175 0 0 845 0 845 338 0 c255 0 354 -4 405 -15z"/>
<path d="M1390 1784 l0 -267 113 6 c130 6 174 21 230 75 50 48 71 120 65 216
-11 169 -100 236 -310 236 l-98 0 0 -266z"/>
</g>
</svg>
